# xmcd
# 
# Track frame offsets:
#     150
#     3305
#     8570
#     21405
#     26532
#     38290
#     44605
#     59712
#     67922
#     77597
#     92820
#     102607
#     125987
#     163150
#     172147
#     196907
#     233875
# 
# Disc length: 3266
# 
# Revision: 14
# Processed by: cddbd v1.5.2PL0 Copyright (c) Steve Scherf et al.
# Submitted via: fre:ac v1.1beta1pre4
# 
DISCID=e10cc011
DTITLE=Carmine Coppola - The Godfather Part III [Soundtrack]
DYEAR=1990
DGENRE=Soundtrack
TTITLE0=Main Title
TTITLE1=The Godfather Waltz
TTITLE2=Marcia Religioso
TTITLE3=Michael's Letter
TTITLE4=The Immigrant - Love Theme
TTITLE5=The Godfather Waltz [Reprise]
TTITLE6=To Each His Own
TTITLE7=Vincent's Theme
TTITLE8=Altobello
TTITLE9=The Godfather Intermezzo
TTITLE10=Sicilian Medley: Va Pensiero-Danza Tarantella-Mazurka (Alla Siciliana
TTITLE11=Promise Me You'll Remember (ft. Harry Connick Jr.)
TTITLE12=Preludio and Siciliana
TTITLE13=A Casa Amiche
TTITLE14=Preghiera
TTITLE15=Finale
TTITLE16=Coda - The Godfather Finale
EXTD=
EXTT0=
EXTT1=
EXTT2=
EXTT3=
EXTT4=
EXTT5=
EXTT6=
EXTT7=
EXTT8=
EXTT9=
EXTT10=
EXTT11=
EXTT12=
EXTT13=
EXTT14=
EXTT15=
EXTT16=
PLAYORDER=
